<?xml version="1.0" encoding="UTF-8"?>
<svg id="Layer_2" data-name="Layer 2" xmlns="http://www.w3.org/2000/svg" viewBox="0 0 934.26 228.89">
  <defs>
    <style>
      .cls-1 {
        fill: #231f20;
      }
    </style>
  </defs>
  <g id="Layer_1-2" data-name="Layer 1">
    <g>
      <path class="cls-1" d="M115.06,35.51c-7.56-10.43-17.76-18.48-30.6-24.16-12.84-5.67-27.06-8.5-42.66-8.49L.15,2.9l-.15,136.27,41.64-.04c15.6-.01,29.83-2.87,42.68-8.57,12.86-5.7,23.07-13.77,30.66-24.21,7.58-10.44,11.38-22.25,11.4-35.42.01-13.18-3.76-24.99-11.32-35.42ZM99.85,97.03c-3.38,7.96-7.95,14.59-13.73,19.88-5.78,5.29-12.53,9.41-20.26,12.36-7.73,2.95-15.95,4.43-24.67,4.44l-20.76.02.14-125.43,20.76-.02c8.72,0,16.94,1.46,24.66,4.4,7.72,2.94,14.47,7.04,20.23,12.32,5.77,5.28,10.33,11.9,13.68,19.86,3.36,7.96,5.03,16.65,5.02,26.09-.01,9.43-1.7,18.13-5.08,26.09Z"/>
      <polygon class="cls-1" points="237.96 133.54 169.7 133.6 169.76 88.52 226.89 88.47 226.89 83.06 169.76 83.11 169.85 8.17 238.1 8.11 238.11 2.69 149.43 2.77 149.28 139.04 237.95 138.96 237.96 133.54"/>
      <polygon class="cls-1" points="344.67 133.45 284.56 133.5 284.71 2.66 264.29 2.67 264.14 138.94 344.66 138.87 344.67 133.45"/>
      <path class="cls-1" d="M453.64,15.46c-3.4-2.87-7.45-5.3-12.16-7.26-4.7-1.97-9.76-3.4-15.19-4.3-5.43-.9-11.21-1.35-17.33-1.34l-40.72.03-.15,136.27,20.42-.02.07-61.21,20.3-.02c7.73,0,14.88-.75,21.45-2.23,6.58-1.48,12.45-3.69,17.62-6.64,5.17-2.95,9.22-6.87,12.18-11.75,2.95-4.88,4.42-10.54,4.43-16.96,0-5.15-.96-9.82-2.91-14-1.94-4.18-4.62-7.71-8.02-10.58ZM433.4,64.24c-6.31,5.29-16.39,7.94-30.24,7.95h-14.57s.07-64.21.07-64.21h14.57c13.84-.02,23.92,2.63,30.22,7.94,6.3,5.32,9.45,13.36,9.44,24.13-.01,10.83-3.18,18.9-9.49,24.19Z"/>
      <polygon class="cls-1" points="593.08 138.66 613.51 138.65 613.66 2.38 593.23 2.4 593.16 66.41 506.78 66.49 506.85 2.47 486.44 2.49 486.28 138.75 506.7 138.74 506.78 71.91 593.16 71.83 593.08 138.66"/>
      <polygon class="cls-1" points="664.63 2.33 644.21 2.35 644.05 138.62 664.47 138.6 664.63 2.33"/>
      <polygon class="cls-1" points="701.31 31.8 816.25 140.78 816.41 2.21 810.21 2.21 810.09 108.98 695.15 0 695 138.57 701.19 138.57 701.31 31.8"/>
      <polygon class="cls-1" points="934.25 7.53 934.26 2.11 845.59 2.18 845.43 138.45 934.11 138.38 934.11 132.95 865.86 133.01 865.91 87.94 923.03 87.89 923.04 82.47 865.91 82.52 866 7.58 934.25 7.53"/>
      <path class="cls-1" d="M258.15,207c.01-11.62,7.26-19.45,18.15-19.46,5.2,0,10.6,1.53,14.66,4.28v-3.67c-4.27-1.92-9.36-2.96-14.73-2.96-14.95.01-25.74,9.29-25.75,21.82-.01,12.55,10.76,21.78,25.7,21.77,6.15,0,11.81-1.4,16.06-4.12v-3.87c-3.96,3.31-9.83,5.64-16.01,5.64-10.85,0-18.09-7.78-18.07-19.43Z"/>
      <polygon class="cls-1" points="340.87 205.32 315.03 205.34 315.05 185.96 307.99 185.97 307.94 227.94 315.01 227.94 315.03 207.69 340.87 207.67 340.84 227.92 347.91 227.91 347.96 185.93 340.89 185.94 340.87 205.32"/>
      <polygon class="cls-1" points="429.04 227.84 457.14 227.82 457.14 225.47 436.11 225.49 436.13 207.59 453.74 207.57 453.74 205.22 436.13 205.24 436.15 188.2 457.19 188.19 457.19 185.84 429.09 185.86 429.04 227.84"/>
      <path class="cls-1" d="M492.88,206.58c-3.08-1.97-6.25-3.83-9.39-5.73-1.87-1.12-3.71-2.25-5.12-3.84-2.45-2.78-1.85-6.51,2.25-8.07,2.93-1.11,5.96-1.06,9.02-.45,2.07.42,4,1.13,5.93,1.99-.07-.14-.13-.28-.21-.41-.56-.86-1.18-1.69-1.69-2.57-.34-.59-.86-.91-1.55-1.01-1.66-.24-3.32-.54-4.99-.63-3.68-.2-7.26.2-10.57,1.71-2.63,1.2-4.51,2.95-5.2,5.51-.82,3.05.03,5.76,2.27,8.17,1.7,1.83,3.79,3.29,5.95,4.68,2.84,1.84,5.76,3.61,8.57,5.48,2.07,1.38,3.89,2.97,5.14,4.99,2.11,3.43.77,7.66-3.64,9.3-2.49.93-5.1,1.08-7.73.8-3.89-.4-7.39-1.71-10.52-3.74-.32-.21-.65-.41-.98-.62-.06.17-.02.25.03.33.85,1.3,1.72,2.59,2.54,3.9.23.36.51.59.94.75,2.75,1.05,5.63,1.59,8.63,1.72,3.65.16,7.2-.21,10.61-1.42,2.41-.86,4.56-2.08,5.88-4.06,2.57-3.9,2.35-7.81-.3-11.61-1.47-2.11-3.59-3.74-5.85-5.19Z"/>
      <polygon class="cls-1" points="515.61 227.77 522.65 227.76 522.69 185.78 515.66 185.79 515.61 227.77"/>
      <path class="cls-1" d="M552.39,185.76h-13.22s-.05,41.99-.05,41.99h13.22c14.66-.02,26.3-8.44,26.31-21.02.01-12.58-11.6-20.98-26.27-20.97ZM552.2,225.39h-6.01s.04-37.28.04-37.28h6.01c10.53-.01,19.01,6.97,18.99,18.62-.01,11.65-8.5,18.64-19.04,18.65Z"/>
      <polygon class="cls-1" points="592.78 227.7 620.87 227.68 620.88 225.33 599.85 225.35 599.87 207.45 617.47 207.43 617.47 205.08 599.87 205.1 599.89 188.07 620.92 188.05 620.92 185.7 592.83 185.72 592.78 227.7"/>
      <polygon class="cls-1" points="671.47 217.19 636.06 184.98 636.01 227.67 638.7 227.66 638.73 196.13 674.14 228.34 674.19 185.65 671.51 185.66 671.47 217.19"/>
      <path class="cls-1" d="M696.34,206.63c.01-11.62,7.27-19.45,18.15-19.46,5.2,0,10.6,1.53,14.66,4.28v-3.67c-4.27-1.92-9.36-2.96-14.73-2.96-14.95.01-25.74,9.29-25.76,21.82-.01,12.55,10.76,21.78,25.71,21.77,6.15,0,11.8-1.4,16.04-4.12v-3.87c-3.95,3.31-9.83,5.64-16.01,5.64-10.85,0-18.09-7.78-18.07-19.43Z"/>
      <polygon class="cls-1" points="746.12 227.58 774.22 227.55 774.22 225.2 753.19 225.22 753.21 207.32 770.81 207.3 770.81 204.96 753.22 204.97 753.23 187.94 774.27 187.92 774.27 185.57 746.17 185.59 746.12 227.58"/>
      <path class="cls-1" d="M143.87,207.71c-2.52-1.78-5.42-2.83-8.78-3.45.5-.19.83-.32,1.16-.46,3.33-1.39,5.67-3.47,6.16-6.77.46-3.12-.47-5.85-3.38-7.88-2.93-2.05-6.46-2.79-10.13-2.93-4.06-.15-8.14-.09-12.21-.11-.22,0-.44.03-.62.05l-.05,41.86c.22.01.36.03.5.03,4.51,0,9.02.02,13.53-.03,3.36-.03,6.65-.44,9.79-1.51,2.7-.92,5.09-2.22,6.72-4.37,3.47-4.57,2.26-10.95-2.68-14.44ZM139.9,220.44c-1.39,2.76-3.94,4.28-7.25,4.85-1.47.25-2.99.32-4.5.37-1.62.07-3.26.02-4.95.02l.04-37.11c1.7,0,3.42-.09,5.1.03,1.26.1,2.55.37,3.72.79,1.85.66,2.98,1.97,3.38,3.63.6,2.53.55,5.05-.55,7.5-.81,1.78-2.23,3.03-4.36,3.65-.14.04-.27.09-.4.13-.02,0-.03.04-.04.05,1.41.53,2.85.98,4.19,1.6,3.39,1.56,5.73,3.88,6.38,7.23.47,2.46.41,4.9-.76,7.23Z"/>
      <path class="cls-1" d="M400.78,209.82c8-1.37,13.46-5.76,13.47-12.16,0-8.1-8.72-11.65-18.79-11.65h-13.31s-.05,41.99-.05,41.99h7.04s0-2.36,0-2.36l.02-14.62v-.6s0-1.75,0-1.75l.02-20.31h5.63c8.31-.01,12,4.03,11.99,9.91,0,3.35-1.22,6.27-3.83,8.16-2.48,2-5.6,2.91-7.25,3.27.81.16,18.6,17.97,19.21,18.28h4.52c-.5-.23-18.13-17.98-18.67-18.15Z"/>
      <path class="cls-1" d="M809.95,206.32c-3.08-1.97-6.25-3.83-9.39-5.73-1.87-1.12-3.71-2.25-5.12-3.84-2.45-2.78-1.85-6.51,2.25-8.07,2.93-1.11,5.96-1.06,9.02-.45,2.07.42,4,1.13,5.93,1.99-.07-.14-.13-.28-.22-.41-.56-.86-1.18-1.69-1.69-2.57-.34-.59-.86-.91-1.55-1.01-1.66-.24-3.32-.54-4.99-.63-3.68-.2-7.26.2-10.57,1.71-2.63,1.2-4.52,2.95-5.2,5.51-.82,3.05.03,5.76,2.27,8.17,1.7,1.83,3.79,3.29,5.95,4.68,2.85,1.84,5.76,3.61,8.57,5.48,2.07,1.38,3.9,2.97,5.14,4.99,2.11,3.43.77,7.66-3.64,9.3-2.49.93-5.1,1.08-7.74.8-3.89-.4-7.38-1.71-10.52-3.74-.32-.21-.65-.41-.98-.62-.06.17-.02.25.03.33.85,1.3,1.72,2.59,2.54,3.9.23.36.51.59.94.75,2.75,1.05,5.63,1.59,8.63,1.72,3.64.16,7.21-.21,10.6-1.42,2.41-.86,4.56-2.08,5.88-4.06,2.57-3.9,2.35-7.81-.3-11.61-1.47-2.11-3.58-3.74-5.85-5.19Z"/>
      <path class="cls-1" d="M235.54,212.59l-12.93-27.64-12.27,26.13c-3.49-.66-7-1.5-10.55-2.54-9.29-2.35-19.98-4.48-29.95-3.47l.02-16.64,21.03-.02v-2.35s-28.1.02-28.1.02l-.02,20.35c-2.48.72-4.91,1.61-7.18,2.93,2.41-.68,4.8-1.09,7.17-1.36l-.02,20.06,28.1-.02v-2.35s-21.02.02-21.02.02l.02-17.9v-.09c12.95.35,25.63,5.05,38.63,7.33l-6.1,12.98h2.76s5.9-12.59,5.9-12.59c3.23.48,6.49.8,9.78.82,2.96.01,5.81-.35,8.62-.85l5.88,12.59h7.42s-6.59-14.09-6.59-14.09c2.29-.63,4.56-1.3,6.8-2-2.51.32-4.97.53-7.41.68ZM212.9,211.5l7.37-15.72,7.95,17.02c-5.16-.04-10.24-.47-15.33-1.3Z"/>
    </g>
  </g>
</svg>